{
	"asset":{
		"generator":"Khronos glTF Blender I/O v4.2.70",
		"version":"2.0"
	},
	"scene":0,
	"scenes":[
		{
			"name":"Scene",
			"nodes":[
				13
			]
		}
	],
	"nodes":[
		{
			"name":"Bone.001",
			"rotation":[
				0,
				1.1920928244535389e-07,
				0,
				1
			],
			"scale":[
				0.9999999403953552,
				0.9999998807907104,
				0.9999999403953552
			],
			"translation":[
				0,
				0.7151461839675903,
				0
			]
		},
		{
			"name":"Bone.004_r",
			"rotation":[
				0.08846179395914078,
				0.00011903265112778172,
				0.008384755812585354,
				0.9960442781448364
			],
			"scale":[
				1,
				0.9999999403953552,
				1
			],
			"translation":[
				0.042632199823856354,
				0.5364511609077454,
				0.0071448273956775665
			]
		},
		{
			"children":[
				1
			],
			"name":"Bone.003_r",
			"rotation":[
				0.03798147290945053,
				0.002027161419391632,
				0.05423124134540558,
				0.9978037476539612
			],
			"scale":[
				1,
				1.0000001192092896,
				1
			],
			"translation":[
				0.0017710187239572406,
				0.6643601655960083,
				-0.0006178542971611023
			]
		},
		{
			"children":[
				2
			],
			"name":"Bone.002_r",
			"rotation":[
				0.008621975779533386,
				0.012414018623530865,
				0.8213018178939819,
				0.5702937841415405
			],
			"scale":[
				0.9999998211860657,
				0.9999998807907104,
				0.9999999403953552
			],
			"translation":[
				-0.22754022479057312,
				0.6036791801452637,
				0.016201268881559372
			]
		},
		{
			"name":"Bone.006_r",
			"rotation":[
				-1.308296759816585e-07,
				-8.612044410938324e-09,
				0.012693529948592186,
				0.9999194145202637
			],
			"scale":[
				1,
				1,
				0.9999999403953552
			],
			"translation":[
				-0.013206315226852894,
				0.7085256576538086,
				0.007914007641375065
			]
		},
		{
			"children":[
				4
			],
			"name":"Bone.005_r",
			"rotation":[
				-4.636228823073907e-06,
				-5.173652439793841e-08,
				0.9998447299003601,
				0.01762319728732109
			],
			"scale":[
				1.0000003576278687,
				0.9999999403953552,
				0.9999999403953552
			],
			"translation":[
				-0.1967727690935135,
				-0.1089409589767456,
				-0.009280785918235779
			]
		},
		{
			"name":"Bone.004_l",
			"rotation":[
				0.08846179395914078,
				-0.00011903265112778172,
				-0.008384755812585354,
				0.9960442781448364
			],
			"scale":[
				1,
				0.9999999403953552,
				1
			],
			"translation":[
				-0.042632199823856354,
				0.5364511609077454,
				0.0071448273956775665
			]
		},
		{
			"children":[
				6
			],
			"name":"Bone.003_l",
			"rotation":[
				0.03798147290945053,
				-0.002027161419391632,
				-0.05423124134540558,
				0.9978037476539612
			],
			"scale":[
				1,
				1.0000001192092896,
				1
			],
			"translation":[
				-0.0017710187239572406,
				0.6643601655960083,
				-0.0006178542971611023
			]
		},
		{
			"children":[
				7
			],
			"name":"Bone.002_l",
			"rotation":[
				0.008621975779533386,
				-0.012414018623530865,
				-0.8213018178939819,
				0.5702937841415405
			],
			"scale":[
				0.9999998211860657,
				0.9999998807907104,
				0.9999999403953552
			],
			"translation":[
				0.22754022479057312,
				0.6036791801452637,
				0.016201268881559372
			]
		},
		{
			"name":"Bone.006_l",
			"rotation":[
				-1.308296759816585e-07,
				8.612044410938324e-09,
				-0.012693529948592186,
				0.9999194145202637
			],
			"scale":[
				1,
				1,
				0.9999999403953552
			],
			"translation":[
				0.013206315226852894,
				0.7085256576538086,
				0.007914007641375065
			]
		},
		{
			"children":[
				9
			],
			"name":"Bone.005_l",
			"rotation":[
				-4.636228823073907e-06,
				5.173652439793841e-08,
				-0.9998447299003601,
				0.01762319728732109
			],
			"scale":[
				1.0000003576278687,
				0.9999999403953552,
				0.9999999403953552
			],
			"translation":[
				0.1967727690935135,
				-0.1089409589767456,
				-0.009280785918235779
			]
		},
		{
			"children":[
				0,
				3,
				5,
				8,
				10
			],
			"name":"Bone",
			"scale":[
				0.9999999403953552,
				0.9999999403953552,
				0.9999999403953552
			],
			"translation":[
				0,
				0.1899024248123169,
				-0.06786113977432251
			]
		},
		{
			"mesh":0,
			"name":"Cylinder",
			"skin":0
		},
		{
			"children":[
				12,
				11
			],
			"name":"Armature.001",
			"scale":[
				0.24309226870536804,
				0.24309226870536804,
				0.24309226870536804
			],
			"translation":[
				0,
				0.28917837142944336,
				0
			]
		}
	],
	"materials":[
		{
			"doubleSided":true,
			"name":"Material.020",
			"pbrMetallicRoughness":{
				"baseColorFactor":[
					0,
					0.01452281977981329,
					0.800315260887146,
					1
				],
				"metallicFactor":0
			}
		},
		{
			"doubleSided":true,
			"name":"Material.023",
			"pbrMetallicRoughness":{
				"baseColorFactor":[
					0.8002434968948364,
					0.6565970182418823,
					0,
					1
				],
				"metallicFactor":0
			}
		},
		{
			"doubleSided":true,
			"name":"Material.016",
			"pbrMetallicRoughness":{
				"baseColorFactor":[
					0.8003232479095459,
					0.5470633506774902,
					0.28073278069496155,
					1
				],
				"metallicFactor":0,
				"roughnessFactor":0.5
			}
		},
		{
			"doubleSided":true,
			"name":"Material.017",
			"pbrMetallicRoughness":{
				"baseColorFactor":[
					0,
					0,
					0,
					1
				],
				"metallicFactor":0,
				"roughnessFactor":0.5
			}
		},
		{
			"doubleSided":true,
			"name":"Material.018",
			"pbrMetallicRoughness":{
				"baseColorFactor":[
					0.8003470301628113,
					0.16305141150951385,
					0,
					1
				],
				"metallicFactor":0,
				"roughnessFactor":0.5
			}
		},
		{
			"doubleSided":true,
			"name":"Material.019",
			"pbrMetallicRoughness":{
				"baseColorFactor":[
					0.8002434968948364,
					0.6565970182418823,
					0,
					1
				],
				"metallicFactor":0
			}
		},
		{
			"doubleSided":true,
			"name":"Material.021",
			"pbrMetallicRoughness":{
				"baseColorFactor":[
					0.03637973591685295,
					0.00606805132701993,
					0,
					1
				],
				"metallicFactor":0
			}
		},
		{
			"doubleSided":true,
			"name":"Material.022",
			"pbrMetallicRoughness":{
				"baseColorFactor":[
					0.800000011920929,
					0.800000011920929,
					0.800000011920929,
					1
				],
				"metallicFactor":0
			}
		}
	],
	"meshes":[
		{
			"name":"Cylinder",
			"primitives":[
				{
					"attributes":{
						"POSITION":0,
						"NORMAL":1,
						"TEXCOORD_0":2,
						"JOINTS_0":3,
						"WEIGHTS_0":4
					},
					"indices":5,
					"material":0
				},
				{
					"attributes":{
						"POSITION":6,
						"NORMAL":7,
						"TEXCOORD_0":8,
						"JOINTS_0":9,
						"WEIGHTS_0":10
					},
					"indices":11,
					"material":1
				},
				{
					"attributes":{
						"POSITION":12,
						"NORMAL":13,
						"TEXCOORD_0":14,
						"JOINTS_0":15,
						"WEIGHTS_0":16
					},
					"indices":17,
					"material":2
				},
				{
					"attributes":{
						"POSITION":18,
						"NORMAL":19,
						"TEXCOORD_0":20,
						"JOINTS_0":21,
						"WEIGHTS_0":22
					},
					"indices":23,
					"material":3
				},
				{
					"attributes":{
						"POSITION":24,
						"NORMAL":25,
						"TEXCOORD_0":26,
						"JOINTS_0":27,
						"WEIGHTS_0":28
					},
					"indices":29,
					"material":4
				},
				{
					"attributes":{
						"POSITION":30,
						"NORMAL":31,
						"TEXCOORD_0":32,
						"JOINTS_0":33,
						"WEIGHTS_0":34
					},
					"indices":35,
					"material":5
				},
				{
					"attributes":{
						"POSITION":36,
						"NORMAL":37,
						"TEXCOORD_0":38,
						"JOINTS_0":39,
						"WEIGHTS_0":40
					},
					"indices":41,
					"material":6
				},
				{
					"attributes":{
						"POSITION":42,
						"NORMAL":43,
						"TEXCOORD_0":44,
						"JOINTS_0":45,
						"WEIGHTS_0":46
					},
					"indices":47,
					"material":7
				}
			]
		}
	],
	"skins":[
		{
			"inverseBindMatrices":48,
			"joints":[
				11,
				0,
				3,
				2,
				1,
				5,
				4,
				8,
				7,
				6,
				10,
				9
			],
			"name":"Armature.001"
		}
	],
	"accessors":[
		{
			"bufferView":0,
			"componentType":5126,
			"count":972,
			"max":[
				0.09867362678050995,
				0.5336018800735474,
				0.06965568661689758
			],
			"min":[
				-0.10037904232740402,
				0.2249896079301834,
				-0.10369475930929184
			],
			"type":"VEC3"
		},
		{
			"bufferView":1,
			"componentType":5126,
			"count":972,
			"type":"VEC3"
		},
		{
			"bufferView":2,
			"componentType":5126,
			"count":972,
			"type":"VEC2"
		},
		{
			"bufferView":3,
			"componentType":5121,
			"count":972,
			"type":"VEC4"
		},
		{
			"bufferView":4,
			"componentType":5126,
			"count":972,
			"type":"VEC4"
		},
		{
			"bufferView":5,
			"componentType":5123,
			"count":3024,
			"type":"SCALAR"
		},
		{
			"bufferView":6,
			"componentType":5126,
			"count":366,
			"max":[
				0.07903938740491867,
				0.5332522392272949,
				0.062363993376493454
			],
			"min":[
				-0.07981501519680023,
				0.3784014880657196,
				-0.09649040549993515
			],
			"type":"VEC3"
		},
		{
			"bufferView":7,
			"componentType":5126,
			"count":366,
			"type":"VEC3"
		},
		{
			"bufferView":8,
			"componentType":5126,
			"count":366,
			"type":"VEC2"
		},
		{
			"bufferView":9,
			"componentType":5121,
			"count":366,
			"type":"VEC4"
		},
		{
			"bufferView":10,
			"componentType":5126,
			"count":366,
			"type":"VEC4"
		},
		{
			"bufferView":11,
			"componentType":5123,
			"count":1242,
			"type":"SCALAR"
		},
		{
			"bufferView":12,
			"componentType":5126,
			"count":16635,
			"max":[
				0.4259776771068573,
				0.9026033282279968,
				0.2127624899148941
			],
			"min":[
				-0.42675328254699707,
				0.08364307880401611,
				-0.20162257552146912
			],
			"type":"VEC3"
		},
		{
			"bufferView":13,
			"componentType":5126,
			"count":16635,
			"type":"VEC3"
		},
		{
			"bufferView":14,
			"componentType":5126,
			"count":16635,
			"type":"VEC2"
		},
		{
			"bufferView":15,
			"componentType":5121,
			"count":16635,
			"type":"VEC4"
		},
		{
			"bufferView":16,
			"componentType":5126,
			"count":16635,
			"type":"VEC4"
		},
		{
			"bufferView":17,
			"componentType":5123,
			"count":90708,
			"type":"SCALAR"
		},
		{
			"bufferView":18,
			"componentType":5126,
			"count":1118,
			"max":[
				0.10193686187267303,
				0.7839774489402771,
				0.13856662809848785
			],
			"min":[
				-0.10362228751182556,
				0.7391554117202759,
				0.09374457597732544
			],
			"type":"VEC3"
		},
		{
			"bufferView":19,
			"componentType":5126,
			"count":1118,
			"type":"VEC3"
		},
		{
			"bufferView":20,
			"componentType":5126,
			"count":1118,
			"type":"VEC2"
		},
		{
			"bufferView":21,
			"componentType":5121,
			"count":1118,
			"type":"VEC4"
		},
		{
			"bufferView":22,
			"componentType":5126,
			"count":1118,
			"type":"VEC4"
		},
		{
			"bufferView":23,
			"componentType":5123,
			"count":5760,
			"type":"SCALAR"
		},
		{
			"bufferView":24,
			"componentType":5126,
			"count":24222,
			"max":[
				0.03585176169872284,
				0.9365789294242859,
				0.04591675475239754
			],
			"min":[
				-0.043563127517700195,
				0.889977216720581,
				-0.014383169822394848
			],
			"type":"VEC3"
		},
		{
			"bufferView":25,
			"componentType":5126,
			"count":24222,
			"type":"VEC3"
		},
		{
			"bufferView":26,
			"componentType":5126,
			"count":24222,
			"type":"VEC2"
		},
		{
			"bufferView":27,
			"componentType":5121,
			"count":24222,
			"type":"VEC4"
		},
		{
			"bufferView":28,
			"componentType":5126,
			"count":24222,
			"type":"VEC4"
		},
		{
			"bufferView":29,
			"componentType":5123,
			"count":72420,
			"type":"SCALAR"
		},
		{
			"bufferView":30,
			"componentType":5126,
			"count":524,
			"max":[
				0.13741998374462128,
				0.5520253777503967,
				0.06345245242118835
			],
			"min":[
				-0.13819560408592224,
				0.4092302620410919,
				-0.08816134184598923
			],
			"type":"VEC3"
		},
		{
			"bufferView":31,
			"componentType":5126,
			"count":524,
			"type":"VEC3"
		},
		{
			"bufferView":32,
			"componentType":5126,
			"count":524,
			"type":"VEC2"
		},
		{
			"bufferView":33,
			"componentType":5121,
			"count":524,
			"type":"VEC4"
		},
		{
			"bufferView":34,
			"componentType":5126,
			"count":524,
			"type":"VEC4"
		},
		{
			"bufferView":35,
			"componentType":5123,
			"count":1476,
			"type":"SCALAR"
		},
		{
			"bufferView":36,
			"componentType":5126,
			"count":17572,
			"max":[
				0.0814237892627716,
				0.07770532369613647,
				0.0543830431997776
			],
			"min":[
				-0.08221574127674103,
				0.0005617334973067045,
				-0.048968713730573654
			],
			"type":"VEC3"
		},
		{
			"bufferView":37,
			"componentType":5126,
			"count":17572,
			"type":"VEC3"
		},
		{
			"bufferView":38,
			"componentType":5126,
			"count":17572,
			"type":"VEC2"
		},
		{
			"bufferView":39,
			"componentType":5121,
			"count":17572,
			"type":"VEC4"
		},
		{
			"bufferView":40,
			"componentType":5126,
			"count":17572,
			"type":"VEC4"
		},
		{
			"bufferView":41,
			"componentType":5123,
			"count":104628,
			"type":"SCALAR"
		},
		{
			"bufferView":42,
			"componentType":5126,
			"count":1056,
			"max":[
				0.08124861866235733,
				0.08364996314048767,
				0.014983255416154861
			],
			"min":[
				-0.08204058557748795,
				0.07764317095279694,
				-0.0488303080201149
			],
			"type":"VEC3"
		},
		{
			"bufferView":43,
			"componentType":5126,
			"count":1056,
			"type":"VEC3"
		},
		{
			"bufferView":44,
			"componentType":5126,
			"count":1056,
			"type":"VEC2"
		},
		{
			"bufferView":45,
			"componentType":5121,
			"count":1056,
			"type":"VEC4"
		},
		{
			"bufferView":46,
			"componentType":5126,
			"count":1056,
			"type":"VEC4"
		},
		{
			"bufferView":47,
			"componentType":5123,
			"count":4752,
			"type":"SCALAR"
		},
		{
			"bufferView":48,
			"componentType":5126,
			"count":12,
			"type":"MAT4"
		}
	],
	"bufferViews":[
		{
			"buffer":0,
			"byteLength":11664,
			"byteOffset":0,
			"target":34962
		},
		{
			"buffer":0,
			"byteLength":11664,
			"byteOffset":11664,
			"target":34962
		},
		{
			"buffer":0,
			"byteLength":7776,
			"byteOffset":23328,
			"target":34962
		},
		{
			"buffer":0,
			"byteLength":3888,
			"byteOffset":31104,
			"target":34962
		},
		{
			"buffer":0,
			"byteLength":15552,
			"byteOffset":34992,
			"target":34962
		},
		{
			"buffer":0,
			"byteLength":6048,
			"byteOffset":50544,
			"target":34963
		},
		{
			"buffer":0,
			"byteLength":4392,
			"byteOffset":56592,
			"target":34962
		},
		{
			"buffer":0,
			"byteLength":4392,
			"byteOffset":60984,
			"target":34962
		},
		{
			"buffer":0,
			"byteLength":2928,
			"byteOffset":65376,
			"target":34962
		},
		{
			"buffer":0,
			"byteLength":1464,
			"byteOffset":68304,
			"target":34962
		},
		{
			"buffer":0,
			"byteLength":5856,
			"byteOffset":69768,
			"target":34962
		},
		{
			"buffer":0,
			"byteLength":2484,
			"byteOffset":75624,
			"target":34963
		},
		{
			"buffer":0,
			"byteLength":199620,
			"byteOffset":78108,
			"target":34962
		},
		{
			"buffer":0,
			"byteLength":199620,
			"byteOffset":277728,
			"target":34962
		},
		{
			"buffer":0,
			"byteLength":133080,
			"byteOffset":477348,
			"target":34962
		},
		{
			"buffer":0,
			"byteLength":66540,
			"byteOffset":610428,
			"target":34962
		},
		{
			"buffer":0,
			"byteLength":266160,
			"byteOffset":676968,
			"target":34962
		},
		{
			"buffer":0,
			"byteLength":181416,
			"byteOffset":943128,
			"target":34963
		},
		{
			"buffer":0,
			"byteLength":13416,
			"byteOffset":1124544,
			"target":34962
		},
		{
			"buffer":0,
			"byteLength":13416,
			"byteOffset":1137960,
			"target":34962
		},
		{
			"buffer":0,
			"byteLength":8944,
			"byteOffset":1151376,
			"target":34962
		},
		{
			"buffer":0,
			"byteLength":4472,
			"byteOffset":1160320,
			"target":34962
		},
		{
			"buffer":0,
			"byteLength":17888,
			"byteOffset":1164792,
			"target":34962
		},
		{
			"buffer":0,
			"byteLength":11520,
			"byteOffset":1182680,
			"target":34963
		},
		{
			"buffer":0,
			"byteLength":290664,
			"byteOffset":1194200,
			"target":34962
		},
		{
			"buffer":0,
			"byteLength":290664,
			"byteOffset":1484864,
			"target":34962
		},
		{
			"buffer":0,
			"byteLength":193776,
			"byteOffset":1775528,
			"target":34962
		},
		{
			"buffer":0,
			"byteLength":96888,
			"byteOffset":1969304,
			"target":34962
		},
		{
			"buffer":0,
			"byteLength":387552,
			"byteOffset":2066192,
			"target":34962
		},
		{
			"buffer":0,
			"byteLength":144840,
			"byteOffset":2453744,
			"target":34963
		},
		{
			"buffer":0,
			"byteLength":6288,
			"byteOffset":2598584,
			"target":34962
		},
		{
			"buffer":0,
			"byteLength":6288,
			"byteOffset":2604872,
			"target":34962
		},
		{
			"buffer":0,
			"byteLength":4192,
			"byteOffset":2611160,
			"target":34962
		},
		{
			"buffer":0,
			"byteLength":2096,
			"byteOffset":2615352,
			"target":34962
		},
		{
			"buffer":0,
			"byteLength":8384,
			"byteOffset":2617448,
			"target":34962
		},
		{
			"buffer":0,
			"byteLength":2952,
			"byteOffset":2625832,
			"target":34963
		},
		{
			"buffer":0,
			"byteLength":210864,
			"byteOffset":2628784,
			"target":34962
		},
		{
			"buffer":0,
			"byteLength":210864,
			"byteOffset":2839648,
			"target":34962
		},
		{
			"buffer":0,
			"byteLength":140576,
			"byteOffset":3050512,
			"target":34962
		},
		{
			"buffer":0,
			"byteLength":70288,
			"byteOffset":3191088,
			"target":34962
		},
		{
			"buffer":0,
			"byteLength":281152,
			"byteOffset":3261376,
			"target":34962
		},
		{
			"buffer":0,
			"byteLength":209256,
			"byteOffset":3542528,
			"target":34963
		},
		{
			"buffer":0,
			"byteLength":12672,
			"byteOffset":3751784,
			"target":34962
		},
		{
			"buffer":0,
			"byteLength":12672,
			"byteOffset":3764456,
			"target":34962
		},
		{
			"buffer":0,
			"byteLength":8448,
			"byteOffset":3777128,
			"target":34962
		},
		{
			"buffer":0,
			"byteLength":4224,
			"byteOffset":3785576,
			"target":34962
		},
		{
			"buffer":0,
			"byteLength":16896,
			"byteOffset":3789800,
			"target":34962
		},
		{
			"buffer":0,
			"byteLength":9504,
			"byteOffset":3806696,
			"target":34963
		},
		{
			"buffer":0,
			"byteLength":768,
			"byteOffset":3816200
		}
	],
	"buffers":[
		{
			"byteLength":3816968,
			"uri":"%D0%90%D0%BD%D0%B8%D0%BC%D0%B0%D1%86%D0%B8%D1%8F%20%D0%9C%D0%B0%D0%BB%D1%8B%D1%88%D0%B0%202.bin"
		}
	]
}
